<svg xmlns="http://www.w3.org/2000/svg" viewBox="0 0 1200 920" font-family="Inter, -apple-system, BlinkMacSystemFont, 'Segoe UI', Roboto, sans-serif">
  <defs>
    <linearGradient id="tgwGrad" x1="0%" y1="0%" x2="100%" y2="0%">
      <stop offset="0%" style="stop-color:#FF9900;stop-opacity:0.15"/>
      <stop offset="100%" style="stop-color:#FF9900;stop-opacity:0.08"/>
    </linearGradient>
    <linearGradient id="devGrad" x1="0%" y1="0%" x2="0%" y2="100%">
      <stop offset="0%" style="stop-color:#1a73e8;stop-opacity:0.08"/>
      <stop offset="100%" style="stop-color:#1a73e8;stop-opacity:0.03"/>
    </linearGradient>
    <linearGradient id="intGrad" x1="0%" y1="0%" x2="0%" y2="100%">
      <stop offset="0%" style="stop-color:#0d904f;stop-opacity:0.08"/>
      <stop offset="100%" style="stop-color:#0d904f;stop-opacity:0.03"/>
    </linearGradient>
    <linearGradient id="prodGrad" x1="0%" y1="0%" x2="0%" y2="100%">
      <stop offset="0%" style="stop-color:#9c27b0;stop-opacity:0.08"/>
      <stop offset="100%" style="stop-color:#9c27b0;stop-opacity:0.03"/>
    </linearGradient>
    <filter id="shadow" x="-2%" y="-2%" width="104%" height="104%">
      <feDropShadow dx="0" dy="1" stdDeviation="2" flood-color="#000" flood-opacity="0.1"/>
    </filter>
    <filter id="shadowLg" x="-3%" y="-3%" width="106%" height="106%">
      <feDropShadow dx="0" dy="2" stdDeviation="4" flood-color="#000" flood-opacity="0.12"/>
    </filter>
    <marker id="arrowBlue" markerWidth="8" markerHeight="6" refX="8" refY="3" orient="auto">
      <path d="M0,0 L8,3 L0,6 Z" fill="#1a73e8"/>
    </marker>
    <marker id="arrowGreen" markerWidth="8" markerHeight="6" refX="8" refY="3" orient="auto">
      <path d="M0,0 L8,3 L0,6 Z" fill="#0d904f"/>
    </marker>
    <marker id="arrowPurple" markerWidth="8" markerHeight="6" refX="8" refY="3" orient="auto">
      <path d="M0,0 L8,3 L0,6 Z" fill="#9c27b0"/>
    </marker>
    <marker id="arrowOrange" markerWidth="8" markerHeight="6" refX="8" refY="3" orient="auto">
      <path d="M0,0 L8,3 L0,6 Z" fill="#FF9900"/>
    </marker>
    <marker id="arrowGray" markerWidth="8" markerHeight="6" refX="8" refY="3" orient="auto">
      <path d="M0,0 L8,3 L0,6 Z" fill="#5f6368"/>
    </marker>
  </defs>

  <!-- Background -->
  <rect width="1200" height="920" fill="#fafbfc" rx="8"/>

  <!-- Title -->
  <text x="600" y="38" text-anchor="middle" font-size="20" font-weight="700" fill="#1a1a2e">Wazuh SIEM — Cross-Cluster Architecture</text>
  <text x="600" y="58" text-anchor="middle" font-size="12" fill="#6b7280">Kamet Infrastructure · EKS Auto Mode · AWS Transit Gateway</text>

  <!-- ==================== TRANSIT GATEWAY ==================== -->
  <rect x="80" y="78" width="1040" height="100" rx="12" fill="url(#tgwGrad)" stroke="#FF9900" stroke-width="1.5" filter="url(#shadow)"/>
  <rect x="100" y="95" width="36" height="36" rx="6" fill="#FF9900"/>
  <text x="118" y="118" text-anchor="middle" font-size="16" fill="white" font-weight="700">TG</text>
  <text x="148" y="110" font-size="14" font-weight="600" fill="#7a4a00">AWS Transit Gateway</text>
  <text x="148" y="126" font-size="10" fill="#92660a">tgw-03473faab7eff7cb2 · kamet-shared-services (058264520916)</text>

  <!-- Route Tables inside TGW -->
  <rect x="540" y="92" width="240" height="36" rx="6" fill="white" stroke="#e0a030" stroke-width="1" filter="url(#shadow)"/>
  <text x="560" y="114" font-size="10" font-weight="600" fill="#7a4a00">kamet-production RT</text>
  <text x="560" y="124" font-size="8" fill="#92660a">internal-services, prod, shared, data</text>

  <rect x="800" y="92" width="240" height="36" rx="6" fill="white" stroke="#e0a030" stroke-width="1" filter="url(#shadow)"/>
  <text x="820" y="114" font-size="10" font-weight="600" fill="#7a4a00">kamet-nonproduction RT</text>
  <text x="820" y="124" font-size="8" fill="#92660a">dev, staging</text>

  <!-- Route53 PHZ floating badge -->
  <rect x="370" y="145" width="460" height="30" rx="15" fill="#146eb4" filter="url(#shadow)"/>
  <text x="600" y="165" text-anchor="middle" font-size="11" font-weight="600" fill="white">Route53 PHZ: manager.wazuh.kamet.internal · Zone: Z0344732L3ONZ0QZVQ03</text>

  <!-- TGW connection lines down -->
  <line x1="200" y1="178" x2="200" y2="220" stroke="#FF9900" stroke-width="2" stroke-dasharray="6,3" marker-end="url(#arrowOrange)"/>
  <line x1="600" y1="178" x2="600" y2="220" stroke="#FF9900" stroke-width="2" stroke-dasharray="6,3" marker-end="url(#arrowOrange)"/>
  <line x1="1000" y1="178" x2="1000" y2="220" stroke="#FF9900" stroke-width="2" stroke-dasharray="6,3" marker-end="url(#arrowOrange)"/>

  <!-- ==================== KAMET-INTERNAL-SERVICES VPC (Center - WAZUH HUB) ==================== -->
  <rect x="370" y="220" width="460" height="540" rx="12" fill="url(#intGrad)" stroke="#0d904f" stroke-width="2" filter="url(#shadowLg)"/>
  <!-- Hub badge -->
  <rect x="630" y="228" width="90" height="20" rx="10" fill="#0d904f"/>
  <text x="675" y="242" text-anchor="middle" font-size="9" font-weight="700" fill="white">WAZUH HUB</text>

  <text x="390" y="248" font-size="14" font-weight="700" fill="#0a7a3e">kamet-internal-services</text>
  <text x="390" y="264" font-size="9" fill="#3d9a6a">Account: 851725383384 · VPC: 10.5.0.0/16</text>
  <text x="390" y="276" font-size="9" fill="#3d9a6a">SG: sg-01b27eb75e3700fb3 · Karpenter NodePool: wazuh</text>

  <!-- Wazuh Indexer cluster -->
  <rect x="390" y="290" width="420" height="80" rx="8" fill="white" stroke="#0d904f" stroke-width="1" filter="url(#shadow)"/>
  <rect x="402" y="300" width="24" height="24" rx="4" fill="#1a73e8"/>
  <text x="414" y="317" text-anchor="middle" font-size="11" fill="white" font-weight="700">I</text>
  <text x="436" y="314" font-size="12" font-weight="600" fill="#1a1a2e">Wazuh Indexer (OpenSearch)</text>
  <text x="436" y="328" font-size="9" fill="#6b7280">3 replicas · StatefulSet · Port 9200 · Quorum bootstrap</text>
  <!-- 3 indexer boxes -->
  <rect x="402" y="340" width="120" height="20" rx="4" fill="#e8f0fe" stroke="#1a73e8" stroke-width="0.5"/>
  <text x="462" y="354" text-anchor="middle" font-size="8" fill="#1a56a8">indexer-0</text>
  <rect x="532" y="340" width="120" height="20" rx="4" fill="#e8f0fe" stroke="#1a73e8" stroke-width="0.5"/>
  <text x="592" y="354" text-anchor="middle" font-size="8" fill="#1a56a8">indexer-1</text>
  <rect x="662" y="340" width="120" height="20" rx="4" fill="#e8f0fe" stroke="#1a73e8" stroke-width="0.5"/>
  <text x="722" y="354" text-anchor="middle" font-size="8" fill="#1a56a8">indexer-2</text>

  <!-- Wazuh Manager -->
  <rect x="390" y="385" width="420" height="108" rx="8" fill="white" stroke="#0d904f" stroke-width="1" filter="url(#shadow)"/>
  <rect x="402" y="395" width="24" height="24" rx="4" fill="#d93025"/>
  <text x="414" y="412" text-anchor="middle" font-size="11" fill="white" font-weight="700">M</text>
  <text x="436" y="409" font-size="12" font-weight="600" fill="#1a1a2e">Wazuh Manager (master + worker)</text>
  <text x="436" y="423" font-size="9" fill="#6b7280">StatefulSet · Ports 1514, 1515, 55000</text>
  <text x="436" y="436" font-size="9" fill="#6b7280">DNS: manager.wazuh.kamet.internal</text>
  <!-- Manager components -->
  <rect x="402" y="450" width="80" height="18" rx="3" fill="#fce8e6" stroke="#d93025" stroke-width="0.5"/>
  <text x="442" y="462" text-anchor="middle" font-size="7" fill="#a8201a">analysisd</text>
  <rect x="490" y="450" width="80" height="18" rx="3" fill="#fce8e6" stroke="#d93025" stroke-width="0.5"/>
  <text x="530" y="462" text-anchor="middle" font-size="7" fill="#a8201a">Filebeat</text>
  <rect x="578" y="450" width="80" height="18" rx="3" fill="#fce8e6" stroke="#d93025" stroke-width="0.5"/>
  <text x="618" y="462" text-anchor="middle" font-size="7" fill="#a8201a">API 55000</text>
  <rect x="666" y="450" width="120" height="18" rx="3" fill="#fff3e0" stroke="#FF9900" stroke-width="0.5"/>
  <text x="726" y="462" text-anchor="middle" font-size="7" fill="#92660a">S3 Sync Sidecar</text>
  <!-- Agent groups -->
  <rect x="402" y="474" width="390" height="14" rx="2" fill="#e8f5e9"/>
  <text x="597" y="484" text-anchor="middle" font-size="7" fill="#2e7d32">Agent Groups: default | dev | prod</text>

  <!-- Wazuh Dashboard -->
  <rect x="390" y="508" width="200" height="60" rx="8" fill="white" stroke="#0d904f" stroke-width="1" filter="url(#shadow)"/>
  <rect x="402" y="518" width="24" height="24" rx="4" fill="#7c4dff"/>
  <text x="414" y="535" text-anchor="middle" font-size="11" fill="white" font-weight="700">D</text>
  <text x="436" y="532" font-size="11" font-weight="600" fill="#1a1a2e">Dashboard</text>
  <text x="436" y="546" font-size="9" fill="#6b7280">Port 5601</text>
  <text x="436" y="558" font-size="8" fill="#6b7280">OpenSearch Dashboards</text>

  <!-- S3 Bucket -->
  <rect x="610" y="508" width="200" height="60" rx="8" fill="white" stroke="#FF9900" stroke-width="1" filter="url(#shadow)"/>
  <rect x="622" y="518" width="24" height="24" rx="4" fill="#FF9900"/>
  <text x="634" y="535" text-anchor="middle" font-size="11" fill="white" font-weight="700">S3</text>
  <text x="656" y="532" font-size="11" font-weight="600" fill="#1a1a2e">S3 Archives</text>
  <text x="656" y="546" font-size="8" fill="#6b7280">Cold storage · 6mo → Glacier</text>
  <text x="656" y="558" font-size="8" fill="#6b7280">Pod Identity IAM Role</text>

  <!-- Agent DaemonSet in internal-services -->
  <rect x="390" y="583" width="420" height="55" rx="8" fill="white" stroke="#0d904f" stroke-width="1" filter="url(#shadow)"/>
  <rect x="402" y="593" width="24" height="24" rx="4" fill="#5f6368"/>
  <text x="414" y="610" text-anchor="middle" font-size="11" fill="white" font-weight="700">A</text>
  <text x="436" y="607" font-size="11" font-weight="600" fill="#1a1a2e">Wazuh Agent (DaemonSet)</text>
  <text x="436" y="621" font-size="9" fill="#6b7280">Group: default · All general-purpose nodes · Privileged + hostPID</text>
  <text x="436" y="633" font-size="8" fill="#6b7280">Local cluster monitoring · /var/log/containers/*.log</text>

  <!-- Cert rotation CronJob -->
  <rect x="390" y="648" width="200" height="28" rx="6" fill="#f3e8ff" stroke="#7c4dff" stroke-width="0.5"/>
  <text x="490" y="666" text-anchor="middle" font-size="8" fill="#5e35b1">Cert Rotation CronJob</text>

  <!-- Cleanup CronJob -->
  <rect x="610" y="648" width="200" height="28" rx="6" fill="#f3e8ff" stroke="#7c4dff" stroke-width="0.5"/>
  <text x="710" y="666" text-anchor="middle" font-size="8" fill="#5e35b1">vd_updater Cleanup CronJob</text>

  <!-- ISM retention badge -->
  <rect x="390" y="686" width="420" height="20" rx="4" fill="#e8f5e9"/>
  <text x="600" y="700" text-anchor="middle" font-size="8" fill="#2e7d32">Retention: OpenSearch ISM 180d · S3 Standard 6mo · S3 Glacier indefinite</text>

  <!-- Internal arrows -->
  <!-- Agent → Manager (local) -->
  <line x1="600" y1="583" x2="600" y2="493" stroke="#5f6368" stroke-width="1.5" marker-end="url(#arrowGray)"/>
  <text x="612" y="545" font-size="7" fill="#5f6368">1514</text>
  <!-- Manager Filebeat → Indexer -->
  <line x1="530" y1="385" x2="530" y2="370" stroke="#d93025" stroke-width="1.5" marker-end="url(#arrowGreen)"/>
  <text x="540" y="380" font-size="7" fill="#d93025">9200</text>
  <!-- Dashboard → Indexer -->
  <line x1="490" y1="508" x2="520" y2="370" stroke="#7c4dff" stroke-width="1" stroke-dasharray="4,2"/>

  <!-- ==================== KAMET-DEV VPC (Left) ==================== -->
  <rect x="30" y="220" width="310" height="310" rx="12" fill="url(#devGrad)" stroke="#1a73e8" stroke-width="1.5" filter="url(#shadowLg)"/>
  <text x="50" y="248" font-size="13" font-weight="700" fill="#1a56a8">kamet-dev</text>
  <text x="50" y="264" font-size="9" fill="#5a8ac4">Account: 058264491838 · VPC: 10.1.0.0/16</text>
  <text x="50" y="276" font-size="9" fill="#5a8ac4">SG: sg-085d99900d4e8f818</text>

  <!-- Agent in dev -->
  <rect x="50" y="295" width="270" height="65" rx="8" fill="white" stroke="#1a73e8" stroke-width="1" filter="url(#shadow)"/>
  <rect x="62" y="305" width="24" height="24" rx="4" fill="#1a73e8"/>
  <text x="74" y="322" text-anchor="middle" font-size="11" fill="white" font-weight="700">A</text>
  <text x="96" y="319" font-size="12" font-weight="600" fill="#1a1a2e">Wazuh Agent (DaemonSet)</text>
  <text x="96" y="333" font-size="9" fill="#6b7280">Group: dev · All nodes · Privileged</text>
  <text x="96" y="347" font-size="8" fill="#6b7280">Chart: wazuh-helm-agent</text>

  <!-- Dev workloads -->
  <rect x="50" y="375" width="270" height="50" rx="8" fill="white" stroke="#b0bec5" stroke-width="1" filter="url(#shadow)"/>
  <text x="70" y="397" font-size="11" font-weight="600" fill="#455a64">Dev Workloads</text>
  <text x="70" y="411" font-size="9" fill="#78909c">APIs, staging services</text>
  <text x="70" y="422" font-size="8" fill="#78909c">Karpenter NodePool: general-purpose</text>

  <!-- Labels badge -->
  <rect x="50" y="440" width="270" height="28" rx="6" fill="#e8f0fe"/>
  <text x="185" y="457" text-anchor="middle" font-size="8" fill="#1a56a8">cluster=kamet-dev · account=058264491838</text>
  <text x="185" y="465" text-anchor="middle" font-size="7" fill="#1a56a8">environment=development</text>

  <!-- SG rules badge -->
  <rect x="50" y="480" width="270" height="28" rx="6" fill="#fff3e0" stroke="#FF9900" stroke-width="0.5"/>
  <text x="185" y="495" text-anchor="middle" font-size="7" fill="#92660a">SG Inbound: TCP 1514-1515 from 10.5.0.0/16</text>
  <text x="185" y="505" text-anchor="middle" font-size="7" fill="#92660a">PHZ association: ✅</text>

  <!-- ==================== KAMET-PROD VPC (Right) ==================== -->
  <rect x="860" y="220" width="310" height="310" rx="12" fill="url(#prodGrad)" stroke="#9c27b0" stroke-width="1.5" filter="url(#shadowLg)"/>
  <text x="880" y="248" font-size="13" font-weight="700" fill="#7b1fa2">kamet-prod</text>
  <text x="880" y="264" font-size="9" fill="#ab47bc">Account: 533267243705 · VPC: 10.3.0.0/16</text>
  <text x="880" y="276" font-size="9" fill="#ab47bc">SG: pending</text>

  <!-- Agent in prod -->
  <rect x="880" y="295" width="270" height="65" rx="8" fill="white" stroke="#9c27b0" stroke-width="1" filter="url(#shadow)"/>
  <rect x="892" y="305" width="24" height="24" rx="4" fill="#9c27b0"/>
  <text x="904" y="322" text-anchor="middle" font-size="11" fill="white" font-weight="700">A</text>
  <text x="926" y="319" font-size="12" font-weight="600" fill="#1a1a2e">Wazuh Agent (DaemonSet)</text>
  <text x="926" y="333" font-size="9" fill="#6b7280">Group: prod · All nodes · Privileged</text>
  <text x="926" y="347" font-size="8" fill="#6b7280">Chart: wazuh-helm-agent</text>

  <!-- Prod workloads -->
  <rect x="880" y="375" width="270" height="50" rx="8" fill="white" stroke="#b0bec5" stroke-width="1" filter="url(#shadow)"/>
  <text x="900" y="397" font-size="11" font-weight="600" fill="#455a64">Production Workloads</text>
  <text x="900" y="411" font-size="9" fill="#78909c">Kamet APIs, Pomelo integration</text>
  <text x="900" y="422" font-size="8" fill="#78909c">Karpenter NodePool: general-purpose</text>

  <!-- Labels badge -->
  <rect x="880" y="440" width="270" height="28" rx="6" fill="#f3e5f5"/>
  <text x="1015" y="457" text-anchor="middle" font-size="8" fill="#6a1b9a">cluster=kamet-prod · account=533267243705</text>
  <text x="1015" y="465" text-anchor="middle" font-size="7" fill="#6a1b9a">environment=production</text>

  <!-- Pending checklist -->
  <rect x="880" y="480" width="270" height="28" rx="6" fill="#fff8e1" stroke="#f9a825" stroke-width="0.5"/>
  <text x="1015" y="495" text-anchor="middle" font-size="7" fill="#f57f17">Pending: SG rules · PHZ association</text>
  <text x="1015" y="505" text-anchor="middle" font-size="7" fill="#f57f17">Agent deploy · Group assign</text>

  <!-- ==================== CROSS-CLUSTER ARROWS ==================== -->
  <!-- Dev Agent → TGW → Internal-services Manager -->
  <path d="M 320 327 C 355 327, 365 435, 390 435" stroke="#1a73e8" stroke-width="2.5" fill="none" marker-end="url(#arrowBlue)"/>
  <rect x="332" y="365" width="72" height="22" rx="4" fill="white" stroke="#1a73e8" stroke-width="0.8"/>
  <text x="368" y="375" text-anchor="middle" font-size="7" font-weight="600" fill="#1a73e8">TCP 1514</text>
  <text x="368" y="384" text-anchor="middle" font-size="6" fill="#1a73e8">via TGW</text>

  <!-- Prod Agent → TGW → Internal-services Manager -->
  <path d="M 880 327 C 845 327, 835 435, 810 435" stroke="#9c27b0" stroke-width="2" stroke-dasharray="8,4" fill="none" marker-end="url(#arrowPurple)"/>
  <rect x="815" y="365" width="72" height="22" rx="4" fill="white" stroke="#9c27b0" stroke-width="0.8"/>
  <text x="851" y="375" text-anchor="middle" font-size="7" font-weight="600" fill="#9c27b0">TCP 1514</text>
  <text x="851" y="384" text-anchor="middle" font-size="6" fill="#9c27b0">planned</text>

  <!-- ==================== DATA FLOW LEGEND ==================== -->
  <rect x="30" y="730" width="1140" height="90" rx="10" fill="white" stroke="#e0e0e0" stroke-width="1" filter="url(#shadow)"/>
  <text x="55" y="752" font-size="12" font-weight="700" fill="#1a1a2e">Data Flow (cross-cluster)</text>

  <!-- Flow diagram -->
  <rect x="55" y="765" width="110" height="22" rx="4" fill="#e8f0fe" stroke="#1a73e8" stroke-width="0.8"/>
  <text x="110" y="780" text-anchor="middle" font-size="8" fill="#1a73e8">Container Logs</text>
  <text x="177" y="780" font-size="10" fill="#6b7280">→</text>
  <rect x="190" y="765" width="105" height="22" rx="4" fill="#e8f0fe" stroke="#1a73e8" stroke-width="0.8"/>
  <text x="243" y="780" text-anchor="middle" font-size="8" fill="#1a73e8">Agent (remote)</text>
  <text x="307" y="780" font-size="10" fill="#FF9900" font-weight="700">→ TGW →</text>
  <rect x="355" y="765" width="115" height="22" rx="4" fill="#fce8e6" stroke="#d93025" stroke-width="0.8"/>
  <text x="413" y="780" text-anchor="middle" font-size="8" fill="#d93025">Manager (hub)</text>
  <text x="482" y="780" font-size="10" fill="#6b7280">→</text>
  <rect x="495" y="765" width="65" height="22" rx="4" fill="#fce8e6" stroke="#d93025" stroke-width="0.8"/>
  <text x="528" y="780" text-anchor="middle" font-size="8" fill="#d93025">Filebeat</text>
  <text x="572" y="780" font-size="10" fill="#6b7280">→</text>
  <rect x="585" y="765" width="105" height="22" rx="4" fill="#e8f0fe" stroke="#1a73e8" stroke-width="0.8"/>
  <text x="638" y="780" text-anchor="middle" font-size="8" fill="#1a73e8">Indexer (OpenSearch)</text>

  <!-- S3 branch -->
  <text x="482" y="804" font-size="10" fill="#6b7280">↓</text>
  <rect x="460" y="798" width="105" height="18" rx="3" fill="#fff3e0" stroke="#FF9900" stroke-width="0.8"/>
  <text x="513" y="810" text-anchor="middle" font-size="7" fill="#92660a">S3 Cold Storage</text>

  <!-- Legend items -->
  <rect x="720" y="758" width="12" height="12" rx="2" fill="#1a73e8"/>
  <text x="738" y="769" font-size="9" fill="#455a64">Active (dev → internal-services)</text>
  <line x1="720" y1="782" x2="732" y2="782" stroke="#9c27b0" stroke-width="2" stroke-dasharray="4,2"/>
  <text x="738" y="786" font-size="9" fill="#455a64">Planned (prod → internal-services)</text>
  <rect x="720" y="795" width="12" height="12" rx="2" fill="#146eb4"/>
  <text x="738" y="806" font-size="9" fill="#455a64">Route53 PHZ (manager.wazuh.kamet.internal)</text>

  <!-- Network layers legend -->
  <text x="950" y="769" font-size="9" font-weight="600" fill="#455a64">Network Layers (6):</text>
  <text x="950" y="783" font-size="8" fill="#78909c">1. TGW  2. VPC Routes  3. NACLs</text>
  <text x="950" y="796" font-size="8" fill="#78909c">4. Security Groups  5. NetworkPolicies  6. DNS</text>

  <!-- ==================== FOOTER ==================== -->
  <text x="600" y="845" text-anchor="middle" font-size="9" fill="#9e9e9e">Wazuh Helm Chart v1.0.1 · wazuh/wazuh-manager:4.14.4 · Hub: kamet-internal-services</text>
  <text x="600" y="860" text-anchor="middle" font-size="8" fill="#bdbdbd">github.com/iLeonelPerea/wazuh-helm</text>
</svg>